<svg width="1600" height="919" viewBox="0 0 1600 919" fill="none" xmlns="http://www.w3.org/2000/svg">
<g opacity="0.12" clip-path="url(#clip0_3544_16022)">
<path d="M537.715 777.722L387.464 793.755L325.721 711.565L385.621 704.053L412.861 740.315L501.713 729.796L536.561 647.39L481.057 573.505L392.206 584.023L364.285 650.048L286.753 659.691L252.114 613.58L326.864 604.942L356.203 536.097L504.954 518.068L594.96 637.881L537.715 777.722Z" fill="url(#paint0_linear_3544_16022)"/>
<path d="M513.593 226.171L651.73 287.411L664.106 389.461L608.475 366.017L603.015 320.993L520.809 285.677L449.426 339.619L460.551 431.357L542.758 466.674L599.951 423.454L674.2 455.32L681.143 512.572L609.805 481.228L549.974 526.179L412.137 467.418L394.097 318.654L513.593 226.171Z" fill="url(#paint1_linear_3544_16022)"/>
<path d="M654.491 -44.252L743.501 77.8519L703.194 172.418L666.738 124.299L684.521 82.5773L630.987 10.8897L542.196 21.9133L505.962 106.923L559.497 178.612L630.637 169.779L679.006 234.5L656.393 287.554L610.284 224.74L535.993 233.753L446.004 113.946L504.762 -23.9074L654.491 -44.252Z" fill="url(#paint2_linear_3544_16022)"/>
<path d="M610.199 686.894L594.166 536.643L676.356 474.9L683.868 534.8L647.606 562.04L658.124 650.891L740.531 685.739L814.416 630.236L803.898 541.384L737.872 513.464L721.623 381.447L774.34 401.293L782.978 476.042L851.823 505.382L869.853 654.133L750.039 744.139L610.199 686.894Z" fill="url(#paint3_linear_3544_16022)"/>
<path d="M665.98 333.965L727.221 195.827L829.271 183.451L805.828 239.082L760.803 244.542L725.487 326.748L779.428 398.131L871.167 387.006L906.483 304.799L863.264 247.607L893.68 175.641L950.932 168.698L921.037 237.752L965.99 297.583L907.229 435.42L758.464 453.46L665.98 333.965Z" fill="url(#paint4_linear_3544_16022)"/>
<path d="M917.267 169.009L779.129 107.768L766.753 5.71777L822.384 29.1617L827.844 74.1858L910.05 109.503L981.433 55.5608L970.308 -36.1773L888.101 -71.4942L830.909 -28.2752L758.943 -58.6902L752 -115.942L821.054 -86.0482L880.885 -131L1018.72 -72.2393L1036.76 76.5257L917.267 169.009Z" fill="url(#paint5_linear_3544_16022)"/>
<path d="M1057.93 -86.3643L1152.83 -203.945L1254.61 -189.487L1217.57 -141.819L1172.66 -148.198L1117.27 -77.9341L1150.9 4.97777L1242.39 17.9754L1297.78 -52.2898L1270.84 -118.719L1318.84 -180.361L1375.94 -172.249L1329.19 -113.285L1357.13 -43.8586L1264.7 74.0733L1116.33 52.9953L1057.93 -86.3643Z" fill="url(#paint6_linear_3544_16022)"/>
<path d="M996.803 384.958L1134.94 446.198L1147.32 548.249L1091.68 524.804L1086.22 479.78L1004.02 444.464L932.636 498.406L943.761 590.144L1025.97 625.461L1083.16 582.242L1155.13 612.657L1162.07 669.909L1093.02 640.015L1033.18 684.967L895.347 626.206L877.307 477.441L996.803 384.958Z" fill="url(#paint7_linear_3544_16022)"/>
<path d="M979.017 345.944L962.984 195.693L1045.17 133.95L1052.69 193.849L1016.42 221.09L1026.94 309.941L1109.35 344.789L1183.23 289.286L1172.72 200.434L1106.69 172.513L1097.05 94.9814L1143.16 60.3428L1151.8 135.092L1220.64 164.432L1238.67 313.183L1118.86 403.188L979.017 345.944Z" fill="url(#paint8_linear_3544_16022)"/>
<path d="M222.406 291.072L168.031 150.091L231.437 69.1803L254.203 125.092L226.22 160.792L259.377 243.893L347.999 256.224L404.996 183.491L371.848 100.387L300.841 90.5068L271.463 18.112L307.037 -27.2804L334.729 42.6855L408.817 53.2087L464.732 192.225L372.299 310.172L222.406 291.072Z" fill="url(#paint9_linear_3544_16022)"/>
<path d="M334.622 332.443L388.996 473.425L325.591 554.335L302.824 498.424L330.808 462.723L297.65 379.623L209.029 367.291L152.031 440.025L185.18 523.129L256.186 533.009L285.564 605.404L249.991 650.796L222.299 580.83L148.21 570.307L92.2952 431.291L184.728 313.344L334.622 332.443Z" fill="url(#paint10_linear_3544_16022)"/>
<path d="M19.4432 676.406L160.425 622.031L241.335 685.437L185.424 708.203L149.723 680.22L66.6227 713.377L54.2915 801.999L127.025 858.996L210.129 825.848L220.009 754.841L292.404 725.463L337.796 761.037L267.83 788.729L257.307 862.817L118.291 918.732L0.343744 826.299L19.4432 676.406Z" fill="url(#paint11_linear_3544_16022)"/>
<path d="M-166.698 594.019L-143.297 444.738L-47.931 406.37L-56.1703 466.175L-98.2549 483.1L-111.09 571.646L-40.5071 626.636L45.2208 592.146L58.0655 503.601L1.51186 459.542L12.2671 382.157L65.771 360.633L54.7701 435.071L113.671 481.229L92.5868 629.578L-46.4359 685.507L-166.698 594.019Z" fill="url(#paint12_linear_3544_16022)"/>
<path d="M-14.5985 61.5072L123.539 122.748L135.917 224.794L80.2831 201.357L74.8267 156.326L-7.38049 121.011L-78.7648 174.956L-67.6378 266.69L14.5653 302.014L71.7606 258.791L143.725 289.208L150.668 346.46L81.6131 316.568L21.7839 361.515L-116.053 302.754L-134.095 153.993L-14.5985 61.5072Z" fill="url(#paint13_linear_3544_16022)"/>
<path d="M-34.1858 -75.7124L60.7207 -193.293L162.494 -178.838L125.456 -131.165L80.5472 -137.55L25.1588 -67.2837L58.7903 15.6302L150.278 28.6247L205.674 -41.6348L178.727 -108.068L226.734 -169.708L283.831 -161.596L237.085 -102.631L265.016 -33.2075L172.582 84.7245L24.2205 63.6491L-34.1858 -75.7124Z" fill="url(#paint14_linear_3544_16022)"/>
<path d="M1422.3 22.0192L1445.7 -127.262L1541.07 -165.63L1532.83 -105.825L1490.75 -88.8999L1477.91 -0.353637L1548.49 54.6362L1634.22 20.146L1647.07 -68.3986L1590.51 -112.458L1601.27 -189.843L1654.77 -211.367L1643.77 -136.929L1702.67 -90.7713L1681.59 57.5777L1542.56 113.507L1422.3 22.0192Z" fill="url(#paint15_linear_3544_16022)"/>
<path d="M1091.18 843.866L1075.15 693.615L1157.34 631.873L1164.85 691.772L1128.59 719.013L1139.11 807.864L1221.51 842.712L1295.4 787.208L1284.88 698.357L1218.85 670.436L1203.62 546.827L1255.32 558.266L1263.96 633.015L1332.81 662.355L1350.84 811.105L1231.02 901.111L1091.18 843.866Z" fill="url(#paint16_linear_3544_16022)"/>
<path d="M1389.74 595.56L1239.49 611.593L1177.75 529.402L1237.65 521.891L1264.89 558.153L1353.74 547.634L1388.59 465.228L1333.09 391.343L1244.23 401.861L1216.31 467.886L1129.26 478.683L1089.19 433.231L1178.89 422.78L1208.23 353.935L1356.98 335.905L1446.99 455.719L1389.74 595.56Z" fill="url(#paint17_linear_3544_16022)"/>
<path d="M1474.77 315.333L1324.52 331.366L1262.78 249.176L1322.68 241.664L1349.92 277.926L1438.77 267.408L1473.62 185.001L1418.11 111.116L1329.26 121.634L1301.34 187.66L1223.81 197.302L1189.17 151.192L1263.92 142.554L1293.26 73.7087L1442.01 55.6787L1532.02 175.493L1474.77 315.333Z" fill="url(#paint18_linear_3544_16022)"/>
<path d="M1600 144.724V336.723L1575.61 326.326L1557.57 177.561L1600 144.724Z" fill="url(#paint19_linear_3544_16022)"/>
<path d="M1600 587.917V640.342L1535.25 648.19L1445.25 528.376L1502.49 388.536L1600 378.131V429.18L1538.49 436.461L1503.65 518.868L1559.15 592.753L1600 587.917Z" fill="url(#paint20_linear_3544_16022)"/>
<path d="M1586.46 919H1423.57L1345.16 817.68L1406.4 679.543L1508.45 667.167L1485 722.798L1439.98 728.257L1404.66 810.464L1458.6 881.847L1550.34 870.722L1585.66 788.515L1542.44 731.322L1579.87 636.824L1600 634.383V887.234L1586.46 919Z" fill="url(#paint21_linear_3544_16022)"/>
<path d="M580.27 919H515.203L496.684 894.352L555.445 756.515L704.21 738.474L796.693 857.97L769.636 919H714.068L737.187 865.186L683.245 793.804L591.507 804.929L556.19 887.135L580.27 919Z" fill="url(#paint22_linear_3544_16022)"/>
<path d="M1073.46 919H839.996L810.516 906.433L792.476 757.668L911.972 665.185L1050.11 726.426L1062.48 828.476L1006.85 805.032L1001.39 760.008L919.188 724.691L847.805 778.633L858.93 870.372L941.137 905.688L998.329 862.469L1070.29 892.884L1073.46 919Z" fill="url(#paint23_linear_3544_16022)"/>
<path d="M500.804 919L456.592 860.154L493.498 768.568L436.246 775.511L398.818 870.009L435.84 919H500.804Z" fill="url(#paint24_linear_3544_16022)"/>
<path d="M273.994 919H218.101L262.775 818.229L364.825 805.854L341.381 861.484L296.357 866.944L273.994 919Z" fill="url(#paint25_linear_3544_16022)"/>
</g>
<defs>
<linearGradient id="paint0_linear_3544_16022" x1="537.715" y1="777.722" x2="355.862" y2="535.644" gradientUnits="userSpaceOnUse">
<stop stop-color="white"/>
<stop offset="1" stop-color="white" stop-opacity="0"/>
</linearGradient>
<linearGradient id="paint1_linear_3544_16022" x1="514.631" y1="226.045" x2="551.288" y2="528.32" gradientUnits="userSpaceOnUse">
<stop stop-color="white"/>
<stop offset="1" stop-color="white" stop-opacity="0"/>
</linearGradient>
<linearGradient id="paint2_linear_3544_16022" x1="655.452" y1="-43.8421" x2="536.061" y2="236.264" gradientUnits="userSpaceOnUse">
<stop stop-color="white"/>
<stop offset="1" stop-color="white" stop-opacity="0"/>
</linearGradient>
<linearGradient id="paint3_linear_3544_16022" x1="595.925" y1="667.892" x2="838.003" y2="486.04" gradientUnits="userSpaceOnUse">
<stop stop-color="white"/>
<stop offset="1" stop-color="white" stop-opacity="0"/>
</linearGradient>
<linearGradient id="paint4_linear_3544_16022" x1="665.98" y1="333.965" x2="966.554" y2="297.515" gradientUnits="userSpaceOnUse">
<stop stop-color="white"/>
<stop offset="1" stop-color="white" stop-opacity="0"/>
</linearGradient>
<linearGradient id="paint5_linear_3544_16022" x1="917.267" y1="169.009" x2="880.817" y2="-131.564" gradientUnits="userSpaceOnUse">
<stop stop-color="white"/>
<stop offset="1" stop-color="white" stop-opacity="0"/>
</linearGradient>
<linearGradient id="paint6_linear_3544_16022" x1="1057.93" y1="-86.3643" x2="1357.69" y2="-43.7783" gradientUnits="userSpaceOnUse">
<stop stop-color="white"/>
<stop offset="1" stop-color="white" stop-opacity="0"/>
</linearGradient>
<linearGradient id="paint7_linear_3544_16022" x1="996.803" y1="384.958" x2="1033.25" y2="685.53" gradientUnits="userSpaceOnUse">
<stop stop-color="white"/>
<stop offset="1" stop-color="white" stop-opacity="0"/>
</linearGradient>
<linearGradient id="paint8_linear_3544_16022" x1="979.017" y1="345.944" x2="1221.1" y2="164.091" gradientUnits="userSpaceOnUse">
<stop stop-color="white"/>
<stop offset="1" stop-color="white" stop-opacity="0"/>
</linearGradient>
<linearGradient id="paint9_linear_3544_16022" x1="222.406" y1="291.072" x2="409.173" y2="52.7602" gradientUnits="userSpaceOnUse">
<stop stop-color="white"/>
<stop offset="1" stop-color="white" stop-opacity="0"/>
</linearGradient>
<linearGradient id="paint10_linear_3544_16022" x1="334.622" y1="332.443" x2="147.854" y2="570.755" gradientUnits="userSpaceOnUse">
<stop stop-color="white"/>
<stop offset="1" stop-color="white" stop-opacity="0"/>
</linearGradient>
<linearGradient id="paint11_linear_3544_16022" x1="19.4432" y1="676.406" x2="257.755" y2="863.173" gradientUnits="userSpaceOnUse">
<stop stop-color="white"/>
<stop offset="1" stop-color="white" stop-opacity="0"/>
</linearGradient>
<linearGradient id="paint12_linear_3544_16022" x1="-166.698" y1="594.019" x2="114.203" y2="481.018" gradientUnits="userSpaceOnUse">
<stop stop-color="white"/>
<stop offset="1" stop-color="white" stop-opacity="0"/>
</linearGradient>
<linearGradient id="paint13_linear_3544_16022" x1="-14.5985" y1="61.5072" x2="21.8493" y2="362.084" gradientUnits="userSpaceOnUse">
<stop stop-color="white"/>
<stop offset="1" stop-color="white" stop-opacity="0"/>
</linearGradient>
<linearGradient id="paint14_linear_3544_16022" x1="-34.1858" y1="-75.7124" x2="265.582" y2="-33.1234" gradientUnits="userSpaceOnUse">
<stop stop-color="white"/>
<stop offset="1" stop-color="white" stop-opacity="0"/>
</linearGradient>
<linearGradient id="paint15_linear_3544_16022" x1="1422.3" y1="22.0192" x2="1703.2" y2="-90.9816" gradientUnits="userSpaceOnUse">
<stop stop-color="white"/>
<stop offset="1" stop-color="white" stop-opacity="0"/>
</linearGradient>
<linearGradient id="paint16_linear_3544_16022" x1="1079.11" y1="827.797" x2="1321.19" y2="645.944" gradientUnits="userSpaceOnUse">
<stop stop-color="white"/>
<stop offset="1" stop-color="white" stop-opacity="0"/>
</linearGradient>
<linearGradient id="paint17_linear_3544_16022" x1="1384.53" y1="599.477" x2="1198.15" y2="351.378" gradientUnits="userSpaceOnUse">
<stop stop-color="white"/>
<stop offset="1" stop-color="white" stop-opacity="0"/>
</linearGradient>
<linearGradient id="paint18_linear_3544_16022" x1="1474.77" y1="315.333" x2="1292.92" y2="73.2548" gradientUnits="userSpaceOnUse">
<stop stop-color="white"/>
<stop offset="1" stop-color="white" stop-opacity="0"/>
</linearGradient>
<linearGradient id="paint19_linear_3544_16022" x1="1575.39" y1="144.643" x2="1656.17" y2="298.529" gradientUnits="userSpaceOnUse">
<stop stop-color="white"/>
<stop offset="1" stop-color="white" stop-opacity="0"/>
</linearGradient>
<linearGradient id="paint20_linear_3544_16022" x1="1471.09" y1="393.837" x2="1636.42" y2="495.251" gradientUnits="userSpaceOnUse">
<stop stop-color="white"/>
<stop offset="1" stop-color="white" stop-opacity="0"/>
</linearGradient>
<linearGradient id="paint21_linear_3544_16022" x1="1348.82" y1="860.103" x2="1549.18" y2="686.922" gradientUnits="userSpaceOnUse">
<stop stop-color="white"/>
<stop offset="1" stop-color="white" stop-opacity="0"/>
</linearGradient>
<linearGradient id="paint22_linear_3544_16022" x1="546.773" y1="748.972" x2="652.695" y2="937.401" gradientUnits="userSpaceOnUse">
<stop stop-color="white"/>
<stop offset="1" stop-color="white" stop-opacity="0"/>
</linearGradient>
<linearGradient id="paint23_linear_3544_16022" x1="796.513" y1="866.477" x2="976.692" y2="673.921" gradientUnits="userSpaceOnUse">
<stop stop-color="white"/>
<stop offset="1" stop-color="white" stop-opacity="0"/>
</linearGradient>
<linearGradient id="paint24_linear_3544_16022" x1="468" y1="782.5" x2="159.764" y2="887.266" gradientUnits="userSpaceOnUse">
<stop stop-color="white"/>
<stop offset="1" stop-color="white" stop-opacity="0"/>
</linearGradient>
<linearGradient id="paint25_linear_3544_16022" x1="468" y1="782.5" x2="159.764" y2="887.266" gradientUnits="userSpaceOnUse">
<stop stop-color="white"/>
<stop offset="1" stop-color="white" stop-opacity="0"/>
</linearGradient>
<clipPath id="clip0_3544_16022">
<rect width="1600" height="919" fill="white"/>
</clipPath>
</defs>
</svg>
