<svg width="349" height="157" viewBox="0 0 349 157" fill="none" xmlns="http://www.w3.org/2000/svg">
    <g filter="url(#filter0_b_7421_227791)">
        <rect x="2.63086" y="0.0117188" width="328.428" height="47.5292" rx="8" fill="url(#paint0_linear_7421_227791)"/>
        <g filter="url(#filter1_b_7421_227791)">
            <rect x="18.6309" y="12.0117" width="23.5292" height="23.5292" rx="11.7646" fill="url(#paint1_linear_7421_227791)" fill-opacity="0.6"/>
            <g opacity="0.5">
                <path d="M32.8076 30.3945L37.0117 26.135L27.9878 26.135L27.9878 17.1594L23.7766 21.419L23.7766 30.3945L32.8076 30.3945Z" fill="#878FCC" fill-opacity="0.6"/>
                <path d="M32.8076 30.3945L37.0117 26.135L27.9878 26.135L27.9878 17.1594L23.7766 21.419L23.7766 30.3945L32.8076 30.3945Z" fill="white" fill-opacity="0.4"/>
            </g>
            <g filter="url(#filter2_b_7421_227791)">
                <path d="M27.9814 17.1582L23.7773 21.4178H32.8013V30.3933L37.0124 26.1337V17.1582H27.9814Z" fill="#878FCC" fill-opacity="0.6"/>
                <path d="M27.9814 17.1582L23.7773 21.4178H32.8013V30.3933L37.0124 26.1337V17.1582H27.9814Z" fill="white" fill-opacity="0.4"/>
            </g>
        </g>
        <g filter="url(#filter3_b_7421_227791)">
            <rect x="34.3164" y="12.0117" width="23.5292" height="23.5292" rx="11.7646" fill="url(#paint2_linear_7421_227791)" fill-opacity="0.6"/>
            <path d="M46.0805 15.6895L52.698 19.638V24.8805L50.0256 23.3521V21.0391L46.0805 18.7464L42.1354 21.0391V25.7519L46.0805 28.0446L49.2413 26.2076L52.698 28.1893V31.1305L49.3856 29.1931L46.0805 31.1015L39.4629 27.2803V19.638L46.0805 15.6895Z" fill="#878FCC" fill-opacity="0.6"/>
            <path d="M46.0805 15.6895L52.698 19.638V24.8805L50.0256 23.3521V21.0391L46.0805 18.7464L42.1354 21.0391V25.7519L46.0805 28.0446L49.2413 26.2076L52.698 28.1893V31.1305L49.3856 29.1931L46.0805 31.1015L39.4629 27.2803V19.638L46.0805 15.6895Z" fill="white" fill-opacity="0.4"/>
        </g>
        <g filter="url(#filter4_d_7421_227791)">
            <path d="M70.1377 21.5474L68.4607 28.7754H66.5107L64.1057 19.6754H65.7437L67.5117 26.8774L69.1757 19.6754H71.1257L72.9327 26.8904L74.6097 19.6754H76.1957L73.9207 28.7754H71.9707L70.1377 21.5474ZM77.5092 19.6754H83.3592V21.0534H79.0692V23.4064H82.5792V24.7844H79.0692V27.3974H83.3592V28.7754H77.5092V19.6754ZM84.1507 19.6754H85.8407L88.4407 26.9554L90.8327 19.6754H92.4707L89.3507 28.7754H87.5307L84.1507 19.6754ZM93.6598 19.6754H99.5098V21.0534H95.2198V23.4064H98.7298V24.7844H95.2198V27.3974H99.5098V28.7754H93.6598V19.6754ZM104.526 25.3434H102.641V28.7754H101.081V19.6754H104.214C105.428 19.6754 106.312 19.9267 106.866 20.4294C107.43 20.9321 107.711 21.6254 107.711 22.5094C107.711 23.1161 107.573 23.6404 107.295 24.0824C107.018 24.5157 106.593 24.8407 106.021 25.0574L107.971 28.7754H106.203L104.526 25.3434ZM102.641 21.0534V23.9654H104.214C104.864 23.9654 105.337 23.8354 105.631 23.5754C105.926 23.3067 106.073 22.9514 106.073 22.5094C106.073 22.0587 105.926 21.7034 105.631 21.4434C105.337 21.1834 104.864 21.0534 104.214 21.0534H102.641ZM112.605 19.6754H114.165L110.005 31.3754H108.445L112.605 19.6754ZM118.994 28.8924C118.388 28.8924 117.833 28.7971 117.33 28.6064C116.836 28.4071 116.412 28.1254 116.056 27.7614C115.71 27.3887 115.441 26.9337 115.25 26.3964C115.06 25.8591 114.964 25.2481 114.964 24.5634V23.8874C114.964 23.2114 115.06 22.6047 115.25 22.0674C115.45 21.5301 115.723 21.0794 116.069 20.7154C116.425 20.3427 116.849 20.0567 117.343 19.8574C117.846 19.6581 118.396 19.5584 118.994 19.5584C119.601 19.5584 120.151 19.6581 120.645 19.8574C121.148 20.0481 121.573 20.3297 121.919 20.7024C122.275 21.0751 122.548 21.5301 122.738 22.0674C122.929 22.5961 123.024 23.2027 123.024 23.8874V24.5634C123.024 25.2654 122.92 25.8894 122.712 26.4354C122.504 26.9814 122.214 27.4407 121.841 27.8134L123.024 29.4254H121.36L120.723 28.5674C120.463 28.6714 120.19 28.7494 119.904 28.8014C119.618 28.8621 119.315 28.8924 118.994 28.8924ZM118.994 27.4364C119.28 27.4364 119.549 27.3974 119.8 27.3194L118.734 25.8504H120.398L120.879 26.5134C121.035 26.2794 121.157 26.0021 121.243 25.6814C121.339 25.3521 121.386 24.9794 121.386 24.5634V23.8874C121.386 23.4194 121.326 23.0077 121.204 22.6524C121.092 22.2884 120.927 21.9894 120.71 21.7554C120.502 21.5127 120.251 21.3307 119.956 21.2094C119.662 21.0794 119.341 21.0144 118.994 21.0144C118.275 21.0144 117.694 21.2571 117.252 21.7424C116.819 22.2191 116.602 22.9341 116.602 23.8874V24.5634C116.602 25.5081 116.823 26.2231 117.265 26.7084C117.716 27.1937 118.292 27.4364 118.994 27.4364ZM128.241 28.8924C127.088 28.8924 126.191 28.5674 125.55 27.9174C124.917 27.2587 124.601 26.3097 124.601 25.0704V19.6754H126.161V25.0704C126.161 25.8591 126.343 26.4527 126.707 26.8514C127.08 27.2414 127.591 27.4364 128.241 27.4364C128.891 27.4364 129.398 27.2457 129.762 26.8644C130.135 26.4744 130.321 25.8764 130.321 25.0704V19.6754H131.881V25.0704C131.881 26.3011 131.556 27.2457 130.906 27.9044C130.265 28.5631 129.376 28.8924 128.241 28.8924ZM133.789 19.6754H136.844C137.442 19.6754 137.949 19.7317 138.365 19.8444C138.789 19.9571 139.132 20.1174 139.392 20.3254C139.66 20.5334 139.855 20.7934 139.977 21.1054C140.098 21.4087 140.159 21.7554 140.159 22.1454C140.159 22.5441 140.063 22.9081 139.873 23.2374C139.682 23.5667 139.387 23.8354 138.989 24.0434C139.483 24.2427 139.842 24.5287 140.068 24.9014C140.302 25.2654 140.419 25.6814 140.419 26.1494C140.419 26.5827 140.358 26.9641 140.237 27.2934C140.115 27.6141 139.92 27.8871 139.652 28.1124C139.392 28.3291 139.049 28.4937 138.625 28.6064C138.209 28.7191 137.702 28.7754 137.104 28.7754H133.789V19.6754ZM135.349 24.7324V27.4494H137.104C137.728 27.4494 138.161 27.3411 138.404 27.1244C138.655 26.8991 138.781 26.5524 138.781 26.0844C138.781 25.6251 138.655 25.2871 138.404 25.0704C138.161 24.8451 137.728 24.7324 137.104 24.7324H135.349ZM135.349 21.0014V23.4584H136.844C137.459 23.4584 137.892 23.3544 138.144 23.1464C138.395 22.9297 138.521 22.6221 138.521 22.2234C138.521 21.8334 138.395 21.5344 138.144 21.3264C137.892 21.1097 137.459 21.0014 136.844 21.0014H135.349ZM141.997 19.6754H147.847V21.0534H143.557V23.4064H147.067V24.7844H143.557V27.3974H147.847V28.7754H141.997V19.6754Z" fill="#878FCC"/>
            <path d="M70.1377 21.5474L68.4607 28.7754H66.5107L64.1057 19.6754H65.7437L67.5117 26.8774L69.1757 19.6754H71.1257L72.9327 26.8904L74.6097 19.6754H76.1957L73.9207 28.7754H71.9707L70.1377 21.5474ZM77.5092 19.6754H83.3592V21.0534H79.0692V23.4064H82.5792V24.7844H79.0692V27.3974H83.3592V28.7754H77.5092V19.6754ZM84.1507 19.6754H85.8407L88.4407 26.9554L90.8327 19.6754H92.4707L89.3507 28.7754H87.5307L84.1507 19.6754ZM93.6598 19.6754H99.5098V21.0534H95.2198V23.4064H98.7298V24.7844H95.2198V27.3974H99.5098V28.7754H93.6598V19.6754ZM104.526 25.3434H102.641V28.7754H101.081V19.6754H104.214C105.428 19.6754 106.312 19.9267 106.866 20.4294C107.43 20.9321 107.711 21.6254 107.711 22.5094C107.711 23.1161 107.573 23.6404 107.295 24.0824C107.018 24.5157 106.593 24.8407 106.021 25.0574L107.971 28.7754H106.203L104.526 25.3434ZM102.641 21.0534V23.9654H104.214C104.864 23.9654 105.337 23.8354 105.631 23.5754C105.926 23.3067 106.073 22.9514 106.073 22.5094C106.073 22.0587 105.926 21.7034 105.631 21.4434C105.337 21.1834 104.864 21.0534 104.214 21.0534H102.641ZM112.605 19.6754H114.165L110.005 31.3754H108.445L112.605 19.6754ZM118.994 28.8924C118.388 28.8924 117.833 28.7971 117.33 28.6064C116.836 28.4071 116.412 28.1254 116.056 27.7614C115.71 27.3887 115.441 26.9337 115.25 26.3964C115.06 25.8591 114.964 25.2481 114.964 24.5634V23.8874C114.964 23.2114 115.06 22.6047 115.25 22.0674C115.45 21.5301 115.723 21.0794 116.069 20.7154C116.425 20.3427 116.849 20.0567 117.343 19.8574C117.846 19.6581 118.396 19.5584 118.994 19.5584C119.601 19.5584 120.151 19.6581 120.645 19.8574C121.148 20.0481 121.573 20.3297 121.919 20.7024C122.275 21.0751 122.548 21.5301 122.738 22.0674C122.929 22.5961 123.024 23.2027 123.024 23.8874V24.5634C123.024 25.2654 122.92 25.8894 122.712 26.4354C122.504 26.9814 122.214 27.4407 121.841 27.8134L123.024 29.4254H121.36L120.723 28.5674C120.463 28.6714 120.19 28.7494 119.904 28.8014C119.618 28.8621 119.315 28.8924 118.994 28.8924ZM118.994 27.4364C119.28 27.4364 119.549 27.3974 119.8 27.3194L118.734 25.8504H120.398L120.879 26.5134C121.035 26.2794 121.157 26.0021 121.243 25.6814C121.339 25.3521 121.386 24.9794 121.386 24.5634V23.8874C121.386 23.4194 121.326 23.0077 121.204 22.6524C121.092 22.2884 120.927 21.9894 120.71 21.7554C120.502 21.5127 120.251 21.3307 119.956 21.2094C119.662 21.0794 119.341 21.0144 118.994 21.0144C118.275 21.0144 117.694 21.2571 117.252 21.7424C116.819 22.2191 116.602 22.9341 116.602 23.8874V24.5634C116.602 25.5081 116.823 26.2231 117.265 26.7084C117.716 27.1937 118.292 27.4364 118.994 27.4364ZM128.241 28.8924C127.088 28.8924 126.191 28.5674 125.55 27.9174C124.917 27.2587 124.601 26.3097 124.601 25.0704V19.6754H126.161V25.0704C126.161 25.8591 126.343 26.4527 126.707 26.8514C127.08 27.2414 127.591 27.4364 128.241 27.4364C128.891 27.4364 129.398 27.2457 129.762 26.8644C130.135 26.4744 130.321 25.8764 130.321 25.0704V19.6754H131.881V25.0704C131.881 26.3011 131.556 27.2457 130.906 27.9044C130.265 28.5631 129.376 28.8924 128.241 28.8924ZM133.789 19.6754H136.844C137.442 19.6754 137.949 19.7317 138.365 19.8444C138.789 19.9571 139.132 20.1174 139.392 20.3254C139.66 20.5334 139.855 20.7934 139.977 21.1054C140.098 21.4087 140.159 21.7554 140.159 22.1454C140.159 22.5441 140.063 22.9081 139.873 23.2374C139.682 23.5667 139.387 23.8354 138.989 24.0434C139.483 24.2427 139.842 24.5287 140.068 24.9014C140.302 25.2654 140.419 25.6814 140.419 26.1494C140.419 26.5827 140.358 26.9641 140.237 27.2934C140.115 27.6141 139.92 27.8871 139.652 28.1124C139.392 28.3291 139.049 28.4937 138.625 28.6064C138.209 28.7191 137.702 28.7754 137.104 28.7754H133.789V19.6754ZM135.349 24.7324V27.4494H137.104C137.728 27.4494 138.161 27.3411 138.404 27.1244C138.655 26.8991 138.781 26.5524 138.781 26.0844C138.781 25.6251 138.655 25.2871 138.404 25.0704C138.161 24.8451 137.728 24.7324 137.104 24.7324H135.349ZM135.349 21.0014V23.4584H136.844C137.459 23.4584 137.892 23.3544 138.144 23.1464C138.395 22.9297 138.521 22.6221 138.521 22.2234C138.521 21.8334 138.395 21.5344 138.144 21.3264C137.892 21.1097 137.459 21.0014 136.844 21.0014H135.349ZM141.997 19.6754H147.847V21.0534H143.557V23.4064H147.067V24.7844H143.557V27.3974H147.847V28.7754H141.997V19.6754Z" fill="white" fill-opacity="0.4"/>
        </g>
        <rect opacity="0.2" x="196.961" y="13.7754" width="118.097" height="20" rx="3" fill="url(#paint3_linear_7421_227791)"/>
        <rect x="3.13086" y="0.511719" width="327.428" height="46.5292" rx="7.5" stroke="url(#paint4_linear_7421_227791)" stroke-opacity="0.08"/>
    </g>
    <g filter="url(#filter5_b_7421_227791)">
        <rect x="19.1621" y="55.043" width="328.428" height="47.5292" rx="8" transform="rotate(-1 19.1621 55.043)" fill="url(#paint5_linear_7421_227791)"/>
        <g filter="url(#filter6_b_7421_227791)">
            <rect x="35.3691" y="66.7617" width="23.5292" height="23.5292" rx="11.7646" transform="rotate(-1 35.3691 66.7617)" fill="url(#paint6_linear_7421_227791)" fill-opacity="0.6"/>
            <g filter="url(#filter7_b_7421_227791)">
                <g opacity="0.5">
                    <path d="M49.8669 84.8956L53.996 80.5633L44.9734 80.7208L44.8168 71.7467L40.6806 76.0791L40.8372 85.0532L49.8669 84.8956Z" fill="#878FCC" fill-opacity="0.6"/>
                    <path d="M49.8669 84.8956L53.996 80.5633L44.9734 80.7208L44.8168 71.7467L40.6806 76.0791L40.8372 85.0532L49.8669 84.8956Z" fill="white" fill-opacity="0.4"/>
                </g>
                <g filter="url(#filter8_b_7421_227791)">
                    <path d="M44.8089 71.7469L40.6798 76.0792L49.7024 75.9217L49.859 84.8959L53.9952 80.5635L53.8385 71.5893L44.8089 71.7469Z" fill="#878FCC" fill-opacity="0.6"/>
                    <path d="M44.8089 71.7469L40.6798 76.0792L49.7024 75.9217L49.859 84.8959L53.9952 80.5635L53.8385 71.5893L44.8089 71.7469Z" fill="white" fill-opacity="0.4"/>
                </g>
            </g>
        </g>
        <g filter="url(#filter9_b_7421_227791)">
            <rect x="51.0527" y="66.4863" width="23.5292" height="23.5292" rx="11.7646" transform="rotate(-1 51.0527 66.4863)" fill="url(#paint7_linear_7421_227791)" fill-opacity="0.6"/>
            <path fill-rule="evenodd" clip-rule="evenodd" d="M52.7285 78.2212C52.8277 83.9053 57.5146 88.4331 63.1987 88.3349C64.5507 88.3115 65.8848 88.0221 67.1248 87.4831C68.3648 86.944 69.4866 86.1659 70.4257 85.1932C71.3651 84.2207 72.1035 83.0725 72.599 81.8144C73.0945 80.5563 73.3371 79.2129 73.3133 77.8609C73.2131 72.1769 68.5245 67.6508 62.8403 67.75C57.1572 67.8492 52.6293 72.538 52.7285 78.2212ZM53.5423 78.206C53.4491 72.9694 57.6168 68.6478 62.8534 68.5527C64.0998 68.5299 65.3385 68.7531 66.4986 69.2094C67.6588 69.6657 68.7174 70.3462 69.6144 71.212C70.5114 72.0778 71.2287 73.1119 71.7258 74.2552C72.2227 75.3985 72.4895 76.6285 72.5108 77.8749C72.5126 77.9883 72.5126 78.1012 72.5105 78.2136C71.4718 78.0897 70.361 77.4893 69.4558 76.6533C68.4158 75.6927 67.7393 74.5073 67.7226 73.548L66.9874 73.5608C67.0043 74.5297 66.5371 75.3568 65.7923 75.9573C65.0436 76.5609 64.0273 76.9218 63.0017 76.9397C61.976 76.9576 60.9478 76.6324 60.1785 76.0553C59.4132 75.4812 58.9174 74.6709 58.9005 73.702L58.1653 73.7148C58.182 74.6741 57.5474 75.8824 56.5415 76.8787C55.6693 77.7427 54.5848 78.38 53.5542 78.5429C53.5483 78.4311 53.5444 78.3188 53.5423 78.206ZM53.6213 79.2766C53.6716 79.6619 53.745 80.0398 53.84 80.4089L56.2223 80.3673L56.1836 78.1501C55.4029 78.7239 54.5148 79.146 53.6213 79.2766ZM54.3476 81.8709C55.1215 83.6204 56.4081 85.0893 58.0136 86.0907L57.9389 81.8082L54.3476 81.8709ZM59.4976 86.844C60.6379 87.3015 61.8865 87.5438 63.192 87.521C64.4933 87.4983 65.7287 87.2145 66.8494 86.7206L66.761 81.6542L63.3056 81.7145L62.8645 81.7222L59.4092 81.7825L59.4976 86.844ZM68.3062 85.9187C69.8813 84.8615 71.1201 83.3455 71.834 81.5656L68.2313 81.6285L68.3062 85.9187ZM72.2903 80.0869C72.3722 79.7152 72.4322 79.3354 72.4691 78.949C71.5679 78.8517 70.6613 78.4599 69.8578 77.9115L69.8965 80.1287L72.2903 80.0869ZM56.6634 80.3596L56.6188 77.8054C56.7713 77.6756 56.9183 77.5404 57.059 77.4011C57.3447 77.1181 57.6104 76.8118 57.8461 76.4912L57.9132 80.3378L56.6634 80.3596ZM59.3835 80.3122L59.3132 76.2822C59.4462 76.411 59.5881 76.5316 59.7372 76.6435C59.9968 76.8382 60.2795 77.0076 60.5785 77.1498L60.6333 80.2903L59.3835 80.3122ZM61.0745 80.2826L61.023 77.3367C61.5848 77.5436 62.1883 77.6598 62.7939 77.6742L62.8389 80.2518L61.0745 80.2826ZM63.28 80.2441L63.235 77.6665C63.8397 77.631 64.4388 77.4938 64.993 77.2674L65.0444 80.2133L63.28 80.2441ZM65.4855 80.2056L65.4307 77.0651C65.7245 76.9126 66.0011 76.7334 66.2538 76.5297C66.399 76.4127 66.5365 76.2873 66.6649 76.1539L66.7353 80.1838L65.4855 80.2056ZM68.2056 80.1582L68.1385 76.3115C68.3852 76.6237 68.6614 76.9205 68.9568 77.1934C69.1023 77.3277 69.254 77.4577 69.4109 77.5822L69.4554 80.1364L68.2056 80.1582Z" fill="#878FCC" fill-opacity="0.6"/>
            <path fill-rule="evenodd" clip-rule="evenodd" d="M52.7285 78.2212C52.8277 83.9053 57.5146 88.4331 63.1987 88.3349C64.5507 88.3115 65.8848 88.0221 67.1248 87.4831C68.3648 86.944 69.4866 86.1659 70.4257 85.1932C71.3651 84.2207 72.1035 83.0725 72.599 81.8144C73.0945 80.5563 73.3371 79.2129 73.3133 77.8609C73.2131 72.1769 68.5245 67.6508 62.8403 67.75C57.1572 67.8492 52.6293 72.538 52.7285 78.2212ZM53.5423 78.206C53.4491 72.9694 57.6168 68.6478 62.8534 68.5527C64.0998 68.5299 65.3385 68.7531 66.4986 69.2094C67.6588 69.6657 68.7174 70.3462 69.6144 71.212C70.5114 72.0778 71.2287 73.1119 71.7258 74.2552C72.2227 75.3985 72.4895 76.6285 72.5108 77.8749C72.5126 77.9883 72.5126 78.1012 72.5105 78.2136C71.4718 78.0897 70.361 77.4893 69.4558 76.6533C68.4158 75.6927 67.7393 74.5073 67.7226 73.548L66.9874 73.5608C67.0043 74.5297 66.5371 75.3568 65.7923 75.9573C65.0436 76.5609 64.0273 76.9218 63.0017 76.9397C61.976 76.9576 60.9478 76.6324 60.1785 76.0553C59.4132 75.4812 58.9174 74.6709 58.9005 73.702L58.1653 73.7148C58.182 74.6741 57.5474 75.8824 56.5415 76.8787C55.6693 77.7427 54.5848 78.38 53.5542 78.5429C53.5483 78.4311 53.5444 78.3188 53.5423 78.206ZM53.6213 79.2766C53.6716 79.6619 53.745 80.0398 53.84 80.4089L56.2223 80.3673L56.1836 78.1501C55.4029 78.7239 54.5148 79.146 53.6213 79.2766ZM54.3476 81.8709C55.1215 83.6204 56.4081 85.0893 58.0136 86.0907L57.9389 81.8082L54.3476 81.8709ZM59.4976 86.844C60.6379 87.3015 61.8865 87.5438 63.192 87.521C64.4933 87.4983 65.7287 87.2145 66.8494 86.7206L66.761 81.6542L63.3056 81.7145L62.8645 81.7222L59.4092 81.7825L59.4976 86.844ZM68.3062 85.9187C69.8813 84.8615 71.1201 83.3455 71.834 81.5656L68.2313 81.6285L68.3062 85.9187ZM72.2903 80.0869C72.3722 79.7152 72.4322 79.3354 72.4691 78.949C71.5679 78.8517 70.6613 78.4599 69.8578 77.9115L69.8965 80.1287L72.2903 80.0869ZM56.6634 80.3596L56.6188 77.8054C56.7713 77.6756 56.9183 77.5404 57.059 77.4011C57.3447 77.1181 57.6104 76.8118 57.8461 76.4912L57.9132 80.3378L56.6634 80.3596ZM59.3835 80.3122L59.3132 76.2822C59.4462 76.411 59.5881 76.5316 59.7372 76.6435C59.9968 76.8382 60.2795 77.0076 60.5785 77.1498L60.6333 80.2903L59.3835 80.3122ZM61.0745 80.2826L61.023 77.3367C61.5848 77.5436 62.1883 77.6598 62.7939 77.6742L62.8389 80.2518L61.0745 80.2826ZM63.28 80.2441L63.235 77.6665C63.8397 77.631 64.4388 77.4938 64.993 77.2674L65.0444 80.2133L63.28 80.2441ZM65.4855 80.2056L65.4307 77.0651C65.7245 76.9126 66.0011 76.7334 66.2538 76.5297C66.399 76.4127 66.5365 76.2873 66.6649 76.1539L66.7353 80.1838L65.4855 80.2056ZM68.2056 80.1582L68.1385 76.3115C68.3852 76.6237 68.6614 76.9205 68.9568 77.1934C69.1023 77.3277 69.254 77.4577 69.4109 77.5822L69.4554 80.1364L68.2056 80.1582Z" fill="white" fill-opacity="0.4"/>
        </g>
        <g filter="url(#filter10_d_7421_227791)">
            <path d="M87.0345 75.3978L85.4839 82.654L83.5342 82.688L80.9707 73.6313L82.6085 73.6028L84.5019 80.7728L86.04 73.5429L87.9897 73.5088L89.9223 80.6912L91.4731 73.448L93.0589 73.4203L90.9431 82.5587L88.9933 82.5927L87.0345 75.3978ZM94.3722 73.3974L100.221 73.2953L100.245 74.6731L95.956 74.748L95.9971 77.1006L99.5065 77.0394L99.5306 78.4172L96.0211 78.4784L96.0667 81.091L100.356 81.0162L100.38 82.3939L94.531 82.496L94.3722 73.3974ZM101.013 73.2815L102.702 73.252L105.429 80.4855L107.694 73.1649L109.331 73.1363L106.371 82.2894L104.551 82.3211L101.013 73.2815ZM110.52 73.1156L116.369 73.0135L116.393 74.3913L112.104 74.4661L112.145 76.8188L115.655 76.7575L115.679 78.1353L112.169 78.1966L112.215 80.8092L116.504 80.7343L116.528 82.1121L110.679 82.2142L110.52 73.1156ZM121.484 78.5931L119.599 78.6259L119.659 82.0574L118.099 82.0847L117.941 72.986L121.073 72.9314C122.286 72.9102 123.175 73.146 123.738 73.639C124.31 74.1317 124.604 74.82 124.619 75.7039C124.63 76.3105 124.5 76.8371 124.231 77.2839C123.961 77.722 123.542 78.0544 122.974 78.281L124.988 81.9644L123.221 81.9953L121.484 78.5931ZM119.524 74.3366L119.575 77.2482L121.148 77.2207C121.798 77.2094 122.268 77.0711 122.558 76.806C122.848 76.5323 122.989 76.1744 122.981 75.7325C122.973 75.2819 122.82 74.9292 122.521 74.6744C122.222 74.4195 121.747 74.2978 121.097 74.3091L119.524 74.3366ZM129.462 72.7849L131.022 72.7577L127.067 84.5285L125.507 84.5557L129.462 72.7849ZM132.147 72.7381L135.201 72.6848C135.799 72.6743 136.307 72.7218 136.725 72.8272C137.151 72.9324 137.497 73.0868 137.76 73.2902C138.032 73.4935 138.232 73.75 138.359 74.0599C138.485 74.361 138.552 74.7066 138.559 75.0965C138.566 75.4951 138.477 75.8607 138.292 76.1933C138.107 76.526 137.817 76.7997 137.422 77.0147C137.919 77.2053 138.284 77.485 138.516 77.8537C138.756 78.2136 138.88 78.6274 138.889 79.0954C138.896 79.5286 138.842 79.911 138.727 80.2424C138.611 80.5651 138.421 80.8415 138.156 81.0715C137.9 81.2926 137.56 81.4632 137.138 81.5833C136.724 81.7032 136.218 81.7684 135.62 81.7788L132.305 81.8367L132.147 72.7381ZM133.795 77.7671L133.842 80.4837L135.597 80.453C136.221 80.4421 136.652 80.3263 136.891 80.1054C137.138 79.8757 137.258 79.5269 137.25 79.059C137.242 78.5997 137.11 78.264 136.855 78.0517C136.609 77.8306 136.173 77.7256 135.549 77.7364L133.795 77.7671ZM133.73 74.0366L133.772 76.4933L135.267 76.4672C135.882 76.4564 136.314 76.3449 136.562 76.1325C136.809 75.9115 136.929 75.6017 136.922 75.2031C136.916 74.8132 136.785 74.5164 136.53 74.3128C136.275 74.1006 135.84 73.9998 135.224 74.0106L133.73 74.0366ZM143.897 78.2018L142.013 78.2347L142.073 81.6662L140.513 81.6934L140.354 72.5948L143.486 72.5401C144.7 72.519 145.588 72.7548 146.151 73.2477C146.723 73.7405 147.017 74.4288 147.032 75.3127C147.043 75.9192 146.914 76.4459 146.644 76.8927C146.374 77.3308 145.955 77.6632 145.387 77.8898L147.402 81.5732L145.634 81.604L143.897 78.2018ZM141.938 73.9454L141.989 76.8569L143.561 76.8295C144.211 76.8181 144.681 76.6799 144.971 76.4148C145.261 76.141 145.402 75.7832 145.395 75.3413C145.387 74.8907 145.233 74.538 144.934 74.2831C144.635 74.0283 144.16 73.9066 143.511 73.9179L141.938 73.9454ZM148.626 72.4504L150.186 72.4232L150.345 81.5218L148.785 81.549L148.626 72.4504ZM152.212 72.3878L155.201 72.3356C156.631 72.3107 157.721 72.6557 158.47 73.3708C159.219 74.0771 159.605 75.1019 159.629 76.445L159.641 77.1729C159.664 78.4987 159.31 79.5364 158.578 80.2859C157.845 81.0268 156.773 81.4096 155.36 81.4343L152.371 81.4864L152.212 72.3878ZM153.796 73.7384L153.906 80.0814L155.336 80.0565C156.237 80.0407 156.909 79.7993 157.352 79.3322C157.803 78.8649 158.02 78.1547 158.004 77.2015L157.991 76.4736C157.974 75.5291 157.733 74.8312 157.265 74.3799C156.798 73.92 156.118 73.6979 155.225 73.7134L153.796 73.7384ZM164.779 76.5631L168.614 76.4962L168.626 77.1721C168.65 78.5412 168.338 79.5825 167.692 80.2959C167.046 81.0006 166.146 81.363 164.994 81.3831C164.378 81.3939 163.827 81.3125 163.338 81.139C162.85 80.9568 162.429 80.6868 162.076 80.3289C161.723 79.971 161.451 79.525 161.259 78.9909C161.068 78.4569 160.966 77.8389 160.954 77.137L160.942 76.4351C160.917 75.04 161.245 73.9681 161.926 73.2194C162.606 72.4621 163.574 72.0725 164.831 72.0505C165.351 72.0415 165.82 72.1113 166.239 72.26C166.666 72.3999 167.033 72.6015 167.341 72.8649C167.658 73.1194 167.914 73.4226 168.111 73.7746C168.308 74.1265 168.445 74.5012 168.521 74.8986L166.831 74.9281C166.694 74.5144 166.463 74.1717 166.137 73.9C165.82 73.6282 165.393 73.4969 164.856 73.5063C164.102 73.5195 163.53 73.7592 163.139 74.2254C162.749 74.683 162.562 75.41 162.579 76.4065L162.592 77.1084C162.608 78.0702 162.833 78.7858 163.266 79.255C163.708 79.7153 164.275 79.9394 164.968 79.9273C165.627 79.9159 166.135 79.751 166.494 79.4326C166.861 79.1142 167.077 78.586 167.142 77.8481L164.803 77.8889L164.779 76.5631ZM170.175 72.0743L176.024 71.9722L176.048 73.35L171.759 73.4248L171.8 75.7775L175.309 75.7162L175.333 77.094L171.824 77.1553L171.869 79.7679L176.159 79.693L176.183 81.0708L170.334 81.1729L170.175 72.0743Z" fill="#878FCC"/>
            <path d="M87.0345 75.3978L85.4839 82.654L83.5342 82.688L80.9707 73.6313L82.6085 73.6028L84.5019 80.7728L86.04 73.5429L87.9897 73.5088L89.9223 80.6912L91.4731 73.448L93.0589 73.4203L90.9431 82.5587L88.9933 82.5927L87.0345 75.3978ZM94.3722 73.3974L100.221 73.2953L100.245 74.6731L95.956 74.748L95.9971 77.1006L99.5065 77.0394L99.5306 78.4172L96.0211 78.4784L96.0667 81.091L100.356 81.0162L100.38 82.3939L94.531 82.496L94.3722 73.3974ZM101.013 73.2815L102.702 73.252L105.429 80.4855L107.694 73.1649L109.331 73.1363L106.371 82.2894L104.551 82.3211L101.013 73.2815ZM110.52 73.1156L116.369 73.0135L116.393 74.3913L112.104 74.4661L112.145 76.8188L115.655 76.7575L115.679 78.1353L112.169 78.1966L112.215 80.8092L116.504 80.7343L116.528 82.1121L110.679 82.2142L110.52 73.1156ZM121.484 78.5931L119.599 78.6259L119.659 82.0574L118.099 82.0847L117.941 72.986L121.073 72.9314C122.286 72.9102 123.175 73.146 123.738 73.639C124.31 74.1317 124.604 74.82 124.619 75.7039C124.63 76.3105 124.5 76.8371 124.231 77.2839C123.961 77.722 123.542 78.0544 122.974 78.281L124.988 81.9644L123.221 81.9953L121.484 78.5931ZM119.524 74.3366L119.575 77.2482L121.148 77.2207C121.798 77.2094 122.268 77.0711 122.558 76.806C122.848 76.5323 122.989 76.1744 122.981 75.7325C122.973 75.2819 122.82 74.9292 122.521 74.6744C122.222 74.4195 121.747 74.2978 121.097 74.3091L119.524 74.3366ZM129.462 72.7849L131.022 72.7577L127.067 84.5285L125.507 84.5557L129.462 72.7849ZM132.147 72.7381L135.201 72.6848C135.799 72.6743 136.307 72.7218 136.725 72.8272C137.151 72.9324 137.497 73.0868 137.76 73.2902C138.032 73.4935 138.232 73.75 138.359 74.0599C138.485 74.361 138.552 74.7066 138.559 75.0965C138.566 75.4951 138.477 75.8607 138.292 76.1933C138.107 76.526 137.817 76.7997 137.422 77.0147C137.919 77.2053 138.284 77.485 138.516 77.8537C138.756 78.2136 138.88 78.6274 138.889 79.0954C138.896 79.5286 138.842 79.911 138.727 80.2424C138.611 80.5651 138.421 80.8415 138.156 81.0715C137.9 81.2926 137.56 81.4632 137.138 81.5833C136.724 81.7032 136.218 81.7684 135.62 81.7788L132.305 81.8367L132.147 72.7381ZM133.795 77.7671L133.842 80.4837L135.597 80.453C136.221 80.4421 136.652 80.3263 136.891 80.1054C137.138 79.8757 137.258 79.5269 137.25 79.059C137.242 78.5997 137.11 78.264 136.855 78.0517C136.609 77.8306 136.173 77.7256 135.549 77.7364L133.795 77.7671ZM133.73 74.0366L133.772 76.4933L135.267 76.4672C135.882 76.4564 136.314 76.3449 136.562 76.1325C136.809 75.9115 136.929 75.6017 136.922 75.2031C136.916 74.8132 136.785 74.5164 136.53 74.3128C136.275 74.1006 135.84 73.9998 135.224 74.0106L133.73 74.0366ZM143.897 78.2018L142.013 78.2347L142.073 81.6662L140.513 81.6934L140.354 72.5948L143.486 72.5401C144.7 72.519 145.588 72.7548 146.151 73.2477C146.723 73.7405 147.017 74.4288 147.032 75.3127C147.043 75.9192 146.914 76.4459 146.644 76.8927C146.374 77.3308 145.955 77.6632 145.387 77.8898L147.402 81.5732L145.634 81.604L143.897 78.2018ZM141.938 73.9454L141.989 76.8569L143.561 76.8295C144.211 76.8181 144.681 76.6799 144.971 76.4148C145.261 76.141 145.402 75.7832 145.395 75.3413C145.387 74.8907 145.233 74.538 144.934 74.2831C144.635 74.0283 144.16 73.9066 143.511 73.9179L141.938 73.9454ZM148.626 72.4504L150.186 72.4232L150.345 81.5218L148.785 81.549L148.626 72.4504ZM152.212 72.3878L155.201 72.3356C156.631 72.3107 157.721 72.6557 158.47 73.3708C159.219 74.0771 159.605 75.1019 159.629 76.445L159.641 77.1729C159.664 78.4987 159.31 79.5364 158.578 80.2859C157.845 81.0268 156.773 81.4096 155.36 81.4343L152.371 81.4864L152.212 72.3878ZM153.796 73.7384L153.906 80.0814L155.336 80.0565C156.237 80.0407 156.909 79.7993 157.352 79.3322C157.803 78.8649 158.02 78.1547 158.004 77.2015L157.991 76.4736C157.974 75.5291 157.733 74.8312 157.265 74.3799C156.798 73.92 156.118 73.6979 155.225 73.7134L153.796 73.7384ZM164.779 76.5631L168.614 76.4962L168.626 77.1721C168.65 78.5412 168.338 79.5825 167.692 80.2959C167.046 81.0006 166.146 81.363 164.994 81.3831C164.378 81.3939 163.827 81.3125 163.338 81.139C162.85 80.9568 162.429 80.6868 162.076 80.3289C161.723 79.971 161.451 79.525 161.259 78.9909C161.068 78.4569 160.966 77.8389 160.954 77.137L160.942 76.4351C160.917 75.04 161.245 73.9681 161.926 73.2194C162.606 72.4621 163.574 72.0725 164.831 72.0505C165.351 72.0415 165.82 72.1113 166.239 72.26C166.666 72.3999 167.033 72.6015 167.341 72.8649C167.658 73.1194 167.914 73.4226 168.111 73.7746C168.308 74.1265 168.445 74.5012 168.521 74.8986L166.831 74.9281C166.694 74.5144 166.463 74.1717 166.137 73.9C165.82 73.6282 165.393 73.4969 164.856 73.5063C164.102 73.5195 163.53 73.7592 163.139 74.2254C162.749 74.683 162.562 75.41 162.579 76.4065L162.592 77.1084C162.608 78.0702 162.833 78.7858 163.266 79.255C163.708 79.7153 164.275 79.9394 164.968 79.9273C165.627 79.9159 166.135 79.751 166.494 79.4326C166.861 79.1142 167.077 78.586 167.142 77.8481L164.803 77.8889L164.779 76.5631ZM170.175 72.0743L176.024 71.9722L176.048 73.35L171.759 73.4248L171.8 75.7775L175.309 75.7162L175.333 77.094L171.824 77.1553L171.869 79.7679L176.159 79.693L176.183 81.0708L170.334 81.1729L170.175 72.0743Z" fill="white" fill-opacity="0.4"/>
        </g>
        <rect opacity="0.2" x="213.703" y="65.4141" width="118.097" height="20" rx="3" transform="rotate(-1 213.703 65.4141)" fill="url(#paint8_linear_7421_227791)"/>
        <rect x="19.6708" y="55.5342" width="327.428" height="46.5292" rx="7.5" transform="rotate(-1 19.6708 55.5342)" stroke="url(#paint9_linear_7421_227791)" stroke-opacity="0.08"/>
    </g>
    <g filter="url(#filter11_b_7421_227791)">
        <rect x="-7.19922" y="104" width="328.428" height="47.5292" rx="8" transform="rotate(0.966507 -7.19922 104)" fill="url(#paint10_linear_7421_227791)"/>
        <g filter="url(#filter12_b_7421_227791)">
            <rect x="8.5957" y="116.268" width="23.5292" height="23.5292" rx="11.7646" transform="rotate(0.966507 8.5957 116.268)" fill="url(#paint11_linear_7421_227791)" fill-opacity="0.6"/>
            <path d="M20.2963 120.141L26.8464 124.201L26.7579 129.442L24.1116 127.869L24.1506 125.556L20.2448 123.197L16.2616 125.423L16.1821 130.135L20.0879 132.494L23.2793 130.711L26.7021 132.751L26.6525 135.691L23.3732 133.698L20.0364 135.551L13.4842 131.619L13.6131 123.977L20.2963 120.141Z" fill="#878FCC" fill-opacity="0.6"/>
            <path d="M20.2963 120.141L26.8464 124.201L26.7579 129.442L24.1116 127.869L24.1506 125.556L20.2448 123.197L16.2616 125.423L16.1821 130.135L20.0879 132.494L23.2793 130.711L26.7021 132.751L26.6525 135.691L23.3732 133.698L20.0364 135.551L13.4842 131.619L13.6131 123.977L20.2963 120.141Z" fill="white" fill-opacity="0.4"/>
        </g>
        <g filter="url(#filter13_b_7421_227791)">
            <rect x="24.2793" y="116.531" width="23.5292" height="23.5292" rx="11.7646" transform="rotate(0.966507 24.2793 116.531)" fill="url(#paint12_linear_7421_227791)" fill-opacity="0.6"/>
            <path fill-rule="evenodd" clip-rule="evenodd" d="M25.551 128.319C25.4551 134.003 29.9839 138.689 35.668 138.786C37.02 138.809 38.3632 138.566 39.621 138.069C40.8788 137.573 42.0266 136.834 42.9986 135.894C43.9707 134.954 44.7482 133.832 45.2865 132.592C45.8249 131.352 46.1134 130.017 46.1361 128.665C46.231 122.981 41.7004 118.297 36.0162 118.201C30.333 118.105 25.6469 122.636 25.551 128.319ZM26.3649 128.332C26.4514 123.095 30.765 118.919 36.0017 119.004C37.2482 119.024 38.4785 119.289 39.6222 119.785C40.7661 120.281 41.8007 120.997 42.6675 121.893C43.5343 122.789 44.2156 123.848 44.6732 125.007C45.1306 126.167 45.355 127.405 45.3336 128.652C45.3315 128.765 45.3275 128.878 45.3217 128.99C44.2878 128.831 43.1982 128.193 42.3223 127.326C41.3159 126.33 40.6804 125.122 40.6966 124.163L39.9614 124.151C39.9451 125.12 39.4497 125.93 38.6848 126.505C37.9158 127.082 36.8878 127.408 35.8621 127.391C34.8365 127.373 33.82 127.013 33.0709 126.41C32.3258 125.81 31.8581 124.983 31.8744 124.014L31.1392 124.002C31.1231 124.961 30.4473 126.147 29.4079 127.108C28.5065 127.942 27.4007 128.541 26.3652 128.669C26.3632 128.557 26.363 128.445 26.3649 128.332ZM26.4071 129.404C26.4442 129.791 26.5045 130.171 26.5868 130.544L28.9691 130.584L29.0065 128.366C28.2066 128.913 27.3045 129.304 26.4071 129.404ZM27.0439 132.022C27.7573 133.797 28.9927 135.309 30.563 136.365L30.6352 132.083L27.0439 132.022ZM32.0202 137.169C33.1442 137.665 34.3838 137.95 35.6893 137.972C36.9905 137.994 38.235 137.753 39.3719 137.298L39.4574 132.231L36.0021 132.173L35.5609 132.166L32.1056 132.107L32.0202 137.169ZM40.8554 136.546C42.4659 135.544 43.7559 134.071 44.5305 132.317L40.9278 132.256L40.8554 136.546ZM45.0372 130.855C45.1319 130.486 45.2049 130.109 45.255 129.724C44.3577 129.596 43.4651 129.173 42.6809 128.597L42.6435 130.814L45.0372 130.855ZM29.4102 130.591L29.4533 128.037C29.6102 127.912 29.7617 127.782 29.9071 127.648C30.2023 127.375 30.4784 127.078 30.7249 126.766L30.66 130.612L29.4102 130.591ZM32.1304 130.637L32.1984 126.607C32.3269 126.74 32.4645 126.866 32.6098 126.983C32.8625 127.186 33.1392 127.365 33.4332 127.518L33.3802 130.658L32.1304 130.637ZM33.8213 130.666L33.871 127.72C34.4253 127.946 35.0245 128.083 35.6292 128.118L35.5858 130.695L33.8213 130.666ZM36.0269 130.703L36.0703 128.125C36.6759 128.11 37.2794 127.994 37.841 127.787L37.7913 130.733L36.0269 130.703ZM38.2324 130.74L38.2854 127.599C38.5843 127.457 38.8669 127.287 39.1264 127.093C39.2755 126.981 39.4173 126.86 39.5502 126.731L39.4822 130.761L38.2324 130.74ZM40.9526 130.786L41.0175 126.939C41.2533 127.26 41.5192 127.566 41.805 127.849C41.9458 127.988 42.0929 128.123 42.2455 128.253L42.2024 130.807L40.9526 130.786Z" fill="#878FCC" fill-opacity="0.6"/>
            <path fill-rule="evenodd" clip-rule="evenodd" d="M25.551 128.319C25.4551 134.003 29.9839 138.689 35.668 138.786C37.02 138.809 38.3632 138.566 39.621 138.069C40.8788 137.573 42.0266 136.834 42.9986 135.894C43.9707 134.954 44.7482 133.832 45.2865 132.592C45.8249 131.352 46.1134 130.017 46.1361 128.665C46.231 122.981 41.7004 118.297 36.0162 118.201C30.333 118.105 25.6469 122.636 25.551 128.319ZM26.3649 128.332C26.4514 123.095 30.765 118.919 36.0017 119.004C37.2482 119.024 38.4785 119.289 39.6222 119.785C40.7661 120.281 41.8007 120.997 42.6675 121.893C43.5343 122.789 44.2156 123.848 44.6732 125.007C45.1306 126.167 45.355 127.405 45.3336 128.652C45.3315 128.765 45.3275 128.878 45.3217 128.99C44.2878 128.831 43.1982 128.193 42.3223 127.326C41.3159 126.33 40.6804 125.122 40.6966 124.163L39.9614 124.151C39.9451 125.12 39.4497 125.93 38.6848 126.505C37.9158 127.082 36.8878 127.408 35.8621 127.391C34.8365 127.373 33.82 127.013 33.0709 126.41C32.3258 125.81 31.8581 124.983 31.8744 124.014L31.1392 124.002C31.1231 124.961 30.4473 126.147 29.4079 127.108C28.5065 127.942 27.4007 128.541 26.3652 128.669C26.3632 128.557 26.363 128.445 26.3649 128.332ZM26.4071 129.404C26.4442 129.791 26.5045 130.171 26.5868 130.544L28.9691 130.584L29.0065 128.366C28.2066 128.913 27.3045 129.304 26.4071 129.404ZM27.0439 132.022C27.7573 133.797 28.9927 135.309 30.563 136.365L30.6352 132.083L27.0439 132.022ZM32.0202 137.169C33.1442 137.665 34.3838 137.95 35.6893 137.972C36.9905 137.994 38.235 137.753 39.3719 137.298L39.4574 132.231L36.0021 132.173L35.5609 132.166L32.1056 132.107L32.0202 137.169ZM40.8554 136.546C42.4659 135.544 43.7559 134.071 44.5305 132.317L40.9278 132.256L40.8554 136.546ZM45.0372 130.855C45.1319 130.486 45.2049 130.109 45.255 129.724C44.3577 129.596 43.4651 129.173 42.6809 128.597L42.6435 130.814L45.0372 130.855ZM29.4102 130.591L29.4533 128.037C29.6102 127.912 29.7617 127.782 29.9071 127.648C30.2023 127.375 30.4784 127.078 30.7249 126.766L30.66 130.612L29.4102 130.591ZM32.1304 130.637L32.1984 126.607C32.3269 126.74 32.4645 126.866 32.6098 126.983C32.8625 127.186 33.1392 127.365 33.4332 127.518L33.3802 130.658L32.1304 130.637ZM33.8213 130.666L33.871 127.72C34.4253 127.946 35.0245 128.083 35.6292 128.118L35.5858 130.695L33.8213 130.666ZM36.0269 130.703L36.0703 128.125C36.6759 128.11 37.2794 127.994 37.841 127.787L37.7913 130.733L36.0269 130.703ZM38.2324 130.74L38.2854 127.599C38.5843 127.457 38.8669 127.287 39.1264 127.093C39.2755 126.981 39.4173 126.86 39.5502 126.731L39.4822 130.761L38.2324 130.74ZM40.9526 130.786L41.0175 126.939C41.2533 127.26 41.5192 127.566 41.805 127.849C41.9458 127.988 42.0929 128.123 42.2455 128.253L42.2024 130.807L40.9526 130.786Z" fill="white" fill-opacity="0.4"/>
        </g>
        <g filter="url(#filter14_d_7421_227791)">
            <path d="M58.1346 133.988C57.528 133.978 56.975 133.873 56.4756 133.674C55.9851 133.466 55.5652 133.178 55.2161 132.808C54.8757 132.429 54.6148 131.97 54.4332 131.429C54.2516 130.889 54.1666 130.276 54.1782 129.592L54.1896 128.916C54.201 128.24 54.3065 127.635 54.5062 127.101C54.7146 126.567 54.9952 126.121 55.3479 125.763C55.7095 125.396 56.1389 125.117 56.6362 124.926C57.1422 124.736 57.6941 124.645 58.292 124.655C58.8986 124.666 59.4472 124.775 59.9377 124.982C60.4371 125.181 60.857 125.47 61.1973 125.849C61.5463 126.227 61.8116 126.687 61.9932 127.227C62.1749 127.759 62.26 128.367 62.2484 129.052L62.237 129.728C62.2252 130.43 62.1107 131.052 61.8935 131.594C61.6763 132.137 61.3783 132.591 60.9994 132.957L62.155 134.589L60.4912 134.561L59.8688 133.692C59.6071 133.792 59.3328 133.865 59.046 133.912C58.759 133.968 58.4552 133.993 58.1346 133.988ZM58.1591 132.532C58.4451 132.537 58.7144 132.503 58.967 132.429L57.9259 130.942L59.5897 130.97L60.0594 131.641C60.2193 131.41 60.3453 131.135 60.4374 130.815C60.5383 130.488 60.5922 130.116 60.5992 129.7L60.6106 129.024C60.6185 128.556 60.5648 128.144 60.4495 127.786C60.343 127.42 60.1834 127.119 59.9707 126.881C59.7668 126.635 59.5186 126.449 59.226 126.322C58.9336 126.187 58.6141 126.117 58.2674 126.111C57.5482 126.099 56.9635 126.332 56.5134 126.81C56.0721 127.279 55.8434 127.99 55.8273 128.943L55.8159 129.619C55.8 130.564 56.0089 131.282 56.4426 131.775C56.8851 132.268 57.4572 132.52 58.1591 132.532ZM67.3798 134.144C66.2273 134.125 65.3359 133.784 64.7056 133.124C64.0842 132.455 63.7839 131.5 63.8048 130.261L63.8958 124.867L65.4556 124.893L65.3646 130.287C65.3513 131.076 65.5232 131.673 65.8804 132.077C66.2465 132.474 66.7545 132.677 67.4044 132.688C68.0543 132.699 68.5644 132.517 68.9348 132.142C69.314 131.758 69.5104 131.164 69.524 130.358L69.615 124.963L71.1748 124.99L71.0837 130.384C71.063 131.614 70.7221 132.553 70.0611 133.201C69.4087 133.849 68.515 134.163 67.3798 134.144ZM73.0821 125.022L76.1367 125.073C76.7346 125.084 77.2406 125.148 77.6546 125.268C78.0773 125.388 78.4169 125.554 78.6734 125.766C78.9385 125.979 79.1291 126.242 79.2451 126.556C79.3613 126.861 79.4161 127.209 79.4096 127.599C79.4028 127.998 79.3014 128.36 79.1052 128.686C78.909 129.012 78.6098 129.276 78.2077 129.477C78.6983 129.685 79.0531 129.977 79.2721 130.353C79.4999 130.721 79.6099 131.139 79.602 131.607C79.5947 132.04 79.5276 132.42 79.4007 132.748C79.274 133.066 79.0744 133.336 78.802 133.557C78.5384 133.769 78.1933 133.928 77.7668 134.033C77.3489 134.139 76.8411 134.187 76.2432 134.177L72.9286 134.121L73.0821 125.022ZM74.5566 130.104L74.5108 132.821L76.2655 132.851C76.8894 132.861 77.3245 132.76 77.5708 132.548C77.8259 132.327 77.9574 131.982 77.9653 131.514C77.9731 131.055 77.8531 130.715 77.6055 130.494C77.3666 130.265 76.9353 130.145 76.3114 130.134L74.5566 130.104ZM74.6195 126.374L74.5781 128.831L76.0729 128.856C76.6881 128.866 77.1232 128.77 77.378 128.566C77.6329 128.353 77.7637 128.048 77.7705 127.649C77.7771 127.259 77.6564 126.958 77.4087 126.746C77.161 126.525 76.7296 126.41 76.1143 126.399L74.6195 126.374ZM81.2895 125.16L87.1387 125.259L87.1155 126.637L82.8261 126.564L82.7864 128.917L86.2959 128.976L86.2726 130.354L82.7631 130.295L82.7191 132.908L87.0085 132.98L86.9852 134.358L81.136 134.259L81.2895 125.16ZM92.0245 125.341L93.5843 125.368L89.2275 136.996L87.6677 136.97L92.0245 125.341ZM94.7087 125.387L97.7633 125.438C98.3612 125.448 98.8672 125.513 99.2812 125.633C99.7039 125.753 100.043 125.919 100.3 126.131C100.565 126.344 100.756 126.607 100.872 126.921C100.988 127.226 101.043 127.574 101.036 127.964C101.029 128.362 100.928 128.725 100.732 129.051C100.536 129.377 100.236 129.641 99.8343 129.842C100.325 130.049 100.68 130.342 100.899 130.718C101.126 131.086 101.236 131.504 101.229 131.972C101.221 132.405 101.154 132.785 101.027 133.112C100.901 133.431 100.701 133.701 100.429 133.921C100.165 134.134 99.8199 134.293 99.3934 134.398C98.9755 134.504 98.4676 134.551 97.8697 134.541L94.5552 134.485L94.7087 125.387ZM96.1832 130.469L96.1373 133.186L97.8921 133.216C98.516 133.226 98.9511 133.125 99.1974 132.913C99.4525 132.691 99.584 132.347 99.5919 131.879C99.5996 131.42 99.4797 131.08 99.232 130.859C98.9932 130.629 98.5618 130.509 97.9379 130.499L96.1832 130.469ZM96.2461 126.739L96.2047 129.196L97.6994 129.221C98.3147 129.231 98.7497 129.134 99.0045 128.931C99.2595 128.718 99.3903 128.413 99.397 128.014C99.4036 127.624 99.283 127.323 99.0352 127.111C98.7876 126.89 98.3561 126.774 97.7409 126.764L96.2461 126.739ZM106.265 131.251L104.38 131.219L104.322 134.65L102.763 134.624L102.916 125.525L106.049 125.578C107.262 125.599 108.141 125.865 108.688 126.377C109.242 126.889 109.512 127.587 109.497 128.471C109.487 129.077 109.34 129.599 109.055 130.036C108.77 130.465 108.34 130.783 107.765 130.99L109.652 134.74L107.884 134.71L106.265 131.251ZM104.453 126.929L104.404 129.841L105.976 129.867C106.626 129.878 107.101 129.756 107.4 129.501C107.699 129.238 107.852 128.885 107.86 128.443C107.867 127.992 107.726 127.635 107.436 127.37C107.145 127.105 106.675 126.967 106.025 126.956L104.453 126.929ZM111.189 125.665L112.748 125.691L112.595 134.79L111.035 134.763L111.189 125.665ZM114.774 125.725L117.764 125.776C119.193 125.8 120.27 126.182 120.995 126.922C121.719 127.654 122.07 128.691 122.047 130.035L122.035 130.762C122.013 132.088 121.623 133.113 120.865 133.837C120.107 134.552 119.023 134.898 117.61 134.874L114.62 134.824L114.774 125.725ZM116.31 127.129L116.203 133.472L117.633 133.497C118.534 133.512 119.214 133.294 119.673 132.842C120.14 132.39 120.381 131.688 120.397 130.735L120.41 130.007C120.425 129.062 120.208 128.357 119.756 127.89C119.305 127.414 118.633 127.169 117.74 127.153L116.31 127.129ZM127.191 130.329L131.026 130.394L131.014 131.07C130.991 132.439 130.644 133.469 129.974 134.16C129.304 134.842 128.392 135.173 127.24 135.154C126.624 135.143 126.076 135.043 125.594 134.853C125.111 134.654 124.7 134.37 124.36 134C124.019 133.63 123.763 133.175 123.59 132.635C123.417 132.095 123.336 131.474 123.348 130.772L123.36 130.07C123.383 128.675 123.748 127.615 124.454 126.89C125.16 126.156 126.141 125.8 127.397 125.821C127.917 125.83 128.384 125.916 128.797 126.079C129.219 126.233 129.58 126.447 129.878 126.721C130.186 126.986 130.432 127.298 130.617 127.657C130.801 128.015 130.925 128.394 130.988 128.794L129.298 128.766C129.175 128.348 128.955 127.997 128.639 127.714C128.332 127.432 127.91 127.286 127.373 127.277C126.619 127.264 126.039 127.484 125.632 127.937C125.226 128.381 125.014 129.101 124.998 130.097L124.986 130.799C124.97 131.761 125.17 132.484 125.586 132.968C126.012 133.443 126.571 133.686 127.264 133.698C127.923 133.709 128.437 133.562 128.806 133.256C129.184 132.95 129.418 132.43 129.508 131.695L127.169 131.655L127.191 130.329ZM132.737 126.028L138.587 126.127L138.563 127.505L134.274 127.432L134.234 129.785L137.744 129.844L137.72 131.222L134.211 131.163L134.167 133.776L138.456 133.848L138.433 135.226L132.584 135.127L132.737 126.028Z" fill="#878FCC"/>
            <path d="M58.1346 133.988C57.528 133.978 56.975 133.873 56.4756 133.674C55.9851 133.466 55.5652 133.178 55.2161 132.808C54.8757 132.429 54.6148 131.97 54.4332 131.429C54.2516 130.889 54.1666 130.276 54.1782 129.592L54.1896 128.916C54.201 128.24 54.3065 127.635 54.5062 127.101C54.7146 126.567 54.9952 126.121 55.3479 125.763C55.7095 125.396 56.1389 125.117 56.6362 124.926C57.1422 124.736 57.6941 124.645 58.292 124.655C58.8986 124.666 59.4472 124.775 59.9377 124.982C60.4371 125.181 60.857 125.47 61.1973 125.849C61.5463 126.227 61.8116 126.687 61.9932 127.227C62.1749 127.759 62.26 128.367 62.2484 129.052L62.237 129.728C62.2252 130.43 62.1107 131.052 61.8935 131.594C61.6763 132.137 61.3783 132.591 60.9994 132.957L62.155 134.589L60.4912 134.561L59.8688 133.692C59.6071 133.792 59.3328 133.865 59.046 133.912C58.759 133.968 58.4552 133.993 58.1346 133.988ZM58.1591 132.532C58.4451 132.537 58.7144 132.503 58.967 132.429L57.9259 130.942L59.5897 130.97L60.0594 131.641C60.2193 131.41 60.3453 131.135 60.4374 130.815C60.5383 130.488 60.5922 130.116 60.5992 129.7L60.6106 129.024C60.6185 128.556 60.5648 128.144 60.4495 127.786C60.343 127.42 60.1834 127.119 59.9707 126.881C59.7668 126.635 59.5186 126.449 59.226 126.322C58.9336 126.187 58.6141 126.117 58.2674 126.111C57.5482 126.099 56.9635 126.332 56.5134 126.81C56.0721 127.279 55.8434 127.99 55.8273 128.943L55.8159 129.619C55.8 130.564 56.0089 131.282 56.4426 131.775C56.8851 132.268 57.4572 132.52 58.1591 132.532ZM67.3798 134.144C66.2273 134.125 65.3359 133.784 64.7056 133.124C64.0842 132.455 63.7839 131.5 63.8048 130.261L63.8958 124.867L65.4556 124.893L65.3646 130.287C65.3513 131.076 65.5232 131.673 65.8804 132.077C66.2465 132.474 66.7545 132.677 67.4044 132.688C68.0543 132.699 68.5644 132.517 68.9348 132.142C69.314 131.758 69.5104 131.164 69.524 130.358L69.615 124.963L71.1748 124.99L71.0837 130.384C71.063 131.614 70.7221 132.553 70.0611 133.201C69.4087 133.849 68.515 134.163 67.3798 134.144ZM73.0821 125.022L76.1367 125.073C76.7346 125.084 77.2406 125.148 77.6546 125.268C78.0773 125.388 78.4169 125.554 78.6734 125.766C78.9385 125.979 79.1291 126.242 79.2451 126.556C79.3613 126.861 79.4161 127.209 79.4096 127.599C79.4028 127.998 79.3014 128.36 79.1052 128.686C78.909 129.012 78.6098 129.276 78.2077 129.477C78.6983 129.685 79.0531 129.977 79.2721 130.353C79.4999 130.721 79.6099 131.139 79.602 131.607C79.5947 132.04 79.5276 132.42 79.4007 132.748C79.274 133.066 79.0744 133.336 78.802 133.557C78.5384 133.769 78.1933 133.928 77.7668 134.033C77.3489 134.139 76.8411 134.187 76.2432 134.177L72.9286 134.121L73.0821 125.022ZM74.5566 130.104L74.5108 132.821L76.2655 132.851C76.8894 132.861 77.3245 132.76 77.5708 132.548C77.8259 132.327 77.9574 131.982 77.9653 131.514C77.9731 131.055 77.8531 130.715 77.6055 130.494C77.3666 130.265 76.9353 130.145 76.3114 130.134L74.5566 130.104ZM74.6195 126.374L74.5781 128.831L76.0729 128.856C76.6881 128.866 77.1232 128.77 77.378 128.566C77.6329 128.353 77.7637 128.048 77.7705 127.649C77.7771 127.259 77.6564 126.958 77.4087 126.746C77.161 126.525 76.7296 126.41 76.1143 126.399L74.6195 126.374ZM81.2895 125.16L87.1387 125.259L87.1155 126.637L82.8261 126.564L82.7864 128.917L86.2959 128.976L86.2726 130.354L82.7631 130.295L82.7191 132.908L87.0085 132.98L86.9852 134.358L81.136 134.259L81.2895 125.16ZM92.0245 125.341L93.5843 125.368L89.2275 136.996L87.6677 136.97L92.0245 125.341ZM94.7087 125.387L97.7633 125.438C98.3612 125.448 98.8672 125.513 99.2812 125.633C99.7039 125.753 100.043 125.919 100.3 126.131C100.565 126.344 100.756 126.607 100.872 126.921C100.988 127.226 101.043 127.574 101.036 127.964C101.029 128.362 100.928 128.725 100.732 129.051C100.536 129.377 100.236 129.641 99.8343 129.842C100.325 130.049 100.68 130.342 100.899 130.718C101.126 131.086 101.236 131.504 101.229 131.972C101.221 132.405 101.154 132.785 101.027 133.112C100.901 133.431 100.701 133.701 100.429 133.921C100.165 134.134 99.8199 134.293 99.3934 134.398C98.9755 134.504 98.4676 134.551 97.8697 134.541L94.5552 134.485L94.7087 125.387ZM96.1832 130.469L96.1373 133.186L97.8921 133.216C98.516 133.226 98.9511 133.125 99.1974 132.913C99.4525 132.691 99.584 132.347 99.5919 131.879C99.5996 131.42 99.4797 131.08 99.232 130.859C98.9932 130.629 98.5618 130.509 97.9379 130.499L96.1832 130.469ZM96.2461 126.739L96.2047 129.196L97.6994 129.221C98.3147 129.231 98.7497 129.134 99.0045 128.931C99.2595 128.718 99.3903 128.413 99.397 128.014C99.4036 127.624 99.283 127.323 99.0352 127.111C98.7876 126.89 98.3561 126.774 97.7409 126.764L96.2461 126.739ZM106.265 131.251L104.38 131.219L104.322 134.65L102.763 134.624L102.916 125.525L106.049 125.578C107.262 125.599 108.141 125.865 108.688 126.377C109.242 126.889 109.512 127.587 109.497 128.471C109.487 129.077 109.34 129.599 109.055 130.036C108.77 130.465 108.34 130.783 107.765 130.99L109.652 134.74L107.884 134.71L106.265 131.251ZM104.453 126.929L104.404 129.841L105.976 129.867C106.626 129.878 107.101 129.756 107.4 129.501C107.699 129.238 107.852 128.885 107.86 128.443C107.867 127.992 107.726 127.635 107.436 127.37C107.145 127.105 106.675 126.967 106.025 126.956L104.453 126.929ZM111.189 125.665L112.748 125.691L112.595 134.79L111.035 134.763L111.189 125.665ZM114.774 125.725L117.764 125.776C119.193 125.8 120.27 126.182 120.995 126.922C121.719 127.654 122.07 128.691 122.047 130.035L122.035 130.762C122.013 132.088 121.623 133.113 120.865 133.837C120.107 134.552 119.023 134.898 117.61 134.874L114.62 134.824L114.774 125.725ZM116.31 127.129L116.203 133.472L117.633 133.497C118.534 133.512 119.214 133.294 119.673 132.842C120.14 132.39 120.381 131.688 120.397 130.735L120.41 130.007C120.425 129.062 120.208 128.357 119.756 127.89C119.305 127.414 118.633 127.169 117.74 127.153L116.31 127.129ZM127.191 130.329L131.026 130.394L131.014 131.07C130.991 132.439 130.644 133.469 129.974 134.16C129.304 134.842 128.392 135.173 127.24 135.154C126.624 135.143 126.076 135.043 125.594 134.853C125.111 134.654 124.7 134.37 124.36 134C124.019 133.63 123.763 133.175 123.59 132.635C123.417 132.095 123.336 131.474 123.348 130.772L123.36 130.07C123.383 128.675 123.748 127.615 124.454 126.89C125.16 126.156 126.141 125.8 127.397 125.821C127.917 125.83 128.384 125.916 128.797 126.079C129.219 126.233 129.58 126.447 129.878 126.721C130.186 126.986 130.432 127.298 130.617 127.657C130.801 128.015 130.925 128.394 130.988 128.794L129.298 128.766C129.175 128.348 128.955 127.997 128.639 127.714C128.332 127.432 127.91 127.286 127.373 127.277C126.619 127.264 126.039 127.484 125.632 127.937C125.226 128.381 125.014 129.101 124.998 130.097L124.986 130.799C124.97 131.761 125.17 132.484 125.586 132.968C126.012 133.443 126.571 133.686 127.264 133.698C127.923 133.709 128.437 133.562 128.806 133.256C129.184 132.95 129.418 132.43 129.508 131.695L127.169 131.655L127.191 130.329ZM132.737 126.028L138.587 126.127L138.563 127.505L134.274 127.432L134.234 129.785L137.744 129.844L137.72 131.222L134.211 131.163L134.167 133.776L138.456 133.848L138.433 135.226L132.584 135.127L132.737 126.028Z" fill="white" fill-opacity="0.4"/>
        </g>
        <rect opacity="0.2" x="186.871" y="121.039" width="118.097" height="20" rx="3" transform="rotate(0.966507 186.871 121.039)" fill="url(#paint13_linear_7421_227791)"/>
        <rect x="-6.70772" y="104.508" width="327.428" height="46.5292" rx="7.5" transform="rotate(0.966507 -6.70772 104.508)" stroke="url(#paint14_linear_7421_227791)" stroke-opacity="0.08"/>
    </g>
    <defs>
        <filter id="filter0_b_7421_227791" x="-41.3691" y="-43.9883" width="416.428" height="135.529" filterUnits="userSpaceOnUse" color-interpolation-filters="sRGB">
            <feFlood flood-opacity="0" result="BackgroundImageFix"/>
            <feGaussianBlur in="BackgroundImageFix" stdDeviation="22"/>
            <feComposite in2="SourceAlpha" operator="in" result="effect1_backgroundBlur_7421_227791"/>
            <feBlend mode="normal" in="SourceGraphic" in2="effect1_backgroundBlur_7421_227791" result="shape"/>
        </filter>
        <filter id="filter1_b_7421_227791" x="-25.3691" y="-31.9883" width="111.529" height="111.529" filterUnits="userSpaceOnUse" color-interpolation-filters="sRGB">
            <feFlood flood-opacity="0" result="BackgroundImageFix"/>
            <feGaussianBlur in="BackgroundImageFix" stdDeviation="22"/>
            <feComposite in2="SourceAlpha" operator="in" result="effect1_backgroundBlur_7421_227791"/>
            <feBlend mode="normal" in="SourceGraphic" in2="effect1_backgroundBlur_7421_227791" result="shape"/>
        </filter>
        <filter id="filter2_b_7421_227791" x="-20.2227" y="-26.8418" width="101.234" height="101.234" filterUnits="userSpaceOnUse" color-interpolation-filters="sRGB">
            <feFlood flood-opacity="0" result="BackgroundImageFix"/>
            <feGaussianBlur in="BackgroundImageFix" stdDeviation="22"/>
            <feComposite in2="SourceAlpha" operator="in" result="effect1_backgroundBlur_7421_227791"/>
            <feBlend mode="normal" in="SourceGraphic" in2="effect1_backgroundBlur_7421_227791" result="shape"/>
        </filter>
        <filter id="filter3_b_7421_227791" x="-9.68359" y="-31.9883" width="111.529" height="111.529" filterUnits="userSpaceOnUse" color-interpolation-filters="sRGB">
            <feFlood flood-opacity="0" result="BackgroundImageFix"/>
            <feGaussianBlur in="BackgroundImageFix" stdDeviation="22"/>
            <feComposite in2="SourceAlpha" operator="in" result="effect1_backgroundBlur_7421_227791"/>
            <feBlend mode="normal" in="SourceGraphic" in2="effect1_backgroundBlur_7421_227791" result="shape"/>
        </filter>
        <filter id="filter4_d_7421_227791" x="60.1055" y="19.5586" width="91.7422" height="19.8164" filterUnits="userSpaceOnUse" color-interpolation-filters="sRGB">
            <feFlood flood-opacity="0" result="BackgroundImageFix"/>
            <feColorMatrix in="SourceAlpha" type="matrix" values="0 0 0 0 0 0 0 0 0 0 0 0 0 0 0 0 0 0 127 0" result="hardAlpha"/>
            <feOffset dy="4"/>
            <feGaussianBlur stdDeviation="2"/>
            <feComposite in2="hardAlpha" operator="out"/>
            <feColorMatrix type="matrix" values="0 0 0 0 0 0 0 0 0 0 0 0 0 0 0 0 0 0 0.25 0"/>
            <feBlend mode="normal" in2="BackgroundImageFix" result="effect1_dropShadow_7421_227791"/>
            <feBlend mode="normal" in="SourceGraphic" in2="effect1_dropShadow_7421_227791" result="shape"/>
        </filter>
        <filter id="filter5_b_7421_227791" x="-24.8379" y="5.31055" width="417.207" height="141.254" filterUnits="userSpaceOnUse" color-interpolation-filters="sRGB">
            <feFlood flood-opacity="0" result="BackgroundImageFix"/>
            <feGaussianBlur in="BackgroundImageFix" stdDeviation="22"/>
            <feComposite in2="SourceAlpha" operator="in" result="effect1_backgroundBlur_7421_227791"/>
            <feBlend mode="normal" in="SourceGraphic" in2="effect1_backgroundBlur_7421_227791" result="shape"/>
        </filter>
        <filter id="filter6_b_7421_227791" x="-8.63086" y="22.3516" width="111.936" height="111.936" filterUnits="userSpaceOnUse" color-interpolation-filters="sRGB">
            <feFlood flood-opacity="0" result="BackgroundImageFix"/>
            <feGaussianBlur in="BackgroundImageFix" stdDeviation="22"/>
            <feComposite in2="SourceAlpha" operator="in" result="effect1_backgroundBlur_7421_227791"/>
            <feBlend mode="normal" in="SourceGraphic" in2="effect1_backgroundBlur_7421_227791" result="shape"/>
        </filter>
        <filter id="filter7_b_7421_227791" x="-3.32031" y="27.5898" width="101.316" height="101.463" filterUnits="userSpaceOnUse" color-interpolation-filters="sRGB">
            <feFlood flood-opacity="0" result="BackgroundImageFix"/>
            <feGaussianBlur in="BackgroundImageFix" stdDeviation="22"/>
            <feComposite in2="SourceAlpha" operator="in" result="effect1_backgroundBlur_7421_227791"/>
            <feBlend mode="normal" in="SourceGraphic" in2="effect1_backgroundBlur_7421_227791" result="shape"/>
        </filter>
        <filter id="filter8_b_7421_227791" x="-3.32031" y="27.5898" width="101.316" height="101.307" filterUnits="userSpaceOnUse" color-interpolation-filters="sRGB">
            <feFlood flood-opacity="0" result="BackgroundImageFix"/>
            <feGaussianBlur in="BackgroundImageFix" stdDeviation="22"/>
            <feComposite in2="SourceAlpha" operator="in" result="effect1_backgroundBlur_7421_227791"/>
            <feBlend mode="normal" in="SourceGraphic" in2="effect1_backgroundBlur_7421_227791" result="shape"/>
        </filter>
        <filter id="filter9_b_7421_227791" x="7.05273" y="22.0762" width="111.936" height="111.936" filterUnits="userSpaceOnUse" color-interpolation-filters="sRGB">
            <feFlood flood-opacity="0" result="BackgroundImageFix"/>
            <feGaussianBlur in="BackgroundImageFix" stdDeviation="22"/>
            <feComposite in2="SourceAlpha" operator="in" result="effect1_backgroundBlur_7421_227791"/>
            <feBlend mode="normal" in="SourceGraphic" in2="effect1_backgroundBlur_7421_227791" result="shape"/>
        </filter>
        <filter id="filter10_d_7421_227791" x="76.9688" y="71.8555" width="103.26" height="21.4746" filterUnits="userSpaceOnUse" color-interpolation-filters="sRGB">
            <feFlood flood-opacity="0" result="BackgroundImageFix"/>
            <feColorMatrix in="SourceAlpha" type="matrix" values="0 0 0 0 0 0 0 0 0 0 0 0 0 0 0 0 0 0 127 0" result="hardAlpha"/>
            <feOffset dy="4"/>
            <feGaussianBlur stdDeviation="2"/>
            <feComposite in2="hardAlpha" operator="out"/>
            <feColorMatrix type="matrix" values="0 0 0 0 0 0 0 0 0 0 0 0 0 0 0 0 0 0 0.25 0"/>
            <feBlend mode="normal" in2="BackgroundImageFix" result="effect1_dropShadow_7421_227791"/>
            <feBlend mode="normal" in="SourceGraphic" in2="effect1_dropShadow_7421_227791" result="shape"/>
        </filter>
        <filter id="filter11_b_7421_227791" x="-52" y="60" width="417.182" height="141.062" filterUnits="userSpaceOnUse" color-interpolation-filters="sRGB">
            <feFlood flood-opacity="0" result="BackgroundImageFix"/>
            <feGaussianBlur in="BackgroundImageFix" stdDeviation="22"/>
            <feComposite in2="SourceAlpha" operator="in" result="effect1_backgroundBlur_7421_227791"/>
            <feBlend mode="normal" in="SourceGraphic" in2="effect1_backgroundBlur_7421_227791" result="shape"/>
        </filter>
        <filter id="filter12_b_7421_227791" x="-35.8008" y="72.2676" width="111.922" height="111.922" filterUnits="userSpaceOnUse" color-interpolation-filters="sRGB">
            <feFlood flood-opacity="0" result="BackgroundImageFix"/>
            <feGaussianBlur in="BackgroundImageFix" stdDeviation="22"/>
            <feComposite in2="SourceAlpha" operator="in" result="effect1_backgroundBlur_7421_227791"/>
            <feBlend mode="normal" in="SourceGraphic" in2="effect1_backgroundBlur_7421_227791" result="shape"/>
        </filter>
        <filter id="filter13_b_7421_227791" x="-20.1172" y="72.5312" width="111.922" height="111.922" filterUnits="userSpaceOnUse" color-interpolation-filters="sRGB">
            <feFlood flood-opacity="0" result="BackgroundImageFix"/>
            <feGaussianBlur in="BackgroundImageFix" stdDeviation="22"/>
            <feComposite in2="SourceAlpha" operator="in" result="effect1_backgroundBlur_7421_227791"/>
            <feBlend mode="normal" in="SourceGraphic" in2="effect1_backgroundBlur_7421_227791" result="shape"/>
        </filter>
        <filter id="filter14_d_7421_227791" x="50.0625" y="124.588" width="92.5254" height="21.2383" filterUnits="userSpaceOnUse" color-interpolation-filters="sRGB">
            <feFlood flood-opacity="0" result="BackgroundImageFix"/>
            <feColorMatrix in="SourceAlpha" type="matrix" values="0 0 0 0 0 0 0 0 0 0 0 0 0 0 0 0 0 0 127 0" result="hardAlpha"/>
            <feOffset dy="4"/>
            <feGaussianBlur stdDeviation="2"/>
            <feComposite in2="hardAlpha" operator="out"/>
            <feColorMatrix type="matrix" values="0 0 0 0 0 0 0 0 0 0 0 0 0 0 0 0 0 0 0.25 0"/>
            <feBlend mode="normal" in2="BackgroundImageFix" result="effect1_dropShadow_7421_227791"/>
            <feBlend mode="normal" in="SourceGraphic" in2="effect1_dropShadow_7421_227791" result="shape"/>
        </filter>
        <linearGradient id="paint0_linear_7421_227791" x1="3.00037" y1="-2.60335e-05" x2="331" y2="48" gradientUnits="userSpaceOnUse">
            <stop stop-color="#060C2E" stop-opacity="0.24"/>
            <stop offset="0.26274" stop-color="#060C2E" stop-opacity="0.097244"/>
            <stop offset="0.696491" stop-color="#060C2E" stop-opacity="0.06"/>
            <stop offset="1" stop-color="#060C2E" stop-opacity="0.24"/>
        </linearGradient>
        <linearGradient id="paint1_linear_7421_227791" x1="18.6309" y1="14.7266" x2="42.16" y2="31.016" gradientUnits="userSpaceOnUse">
            <stop stop-color="#878FCC"/>
            <stop offset="1" stop-color="#878FCC" stop-opacity="0"/>
        </linearGradient>
        <linearGradient id="paint2_linear_7421_227791" x1="34.3164" y1="14.7266" x2="57.8456" y2="31.016" gradientUnits="userSpaceOnUse">
            <stop stop-color="#878FCC"/>
            <stop offset="1" stop-color="#878FCC" stop-opacity="0"/>
        </linearGradient>
        <linearGradient id="paint3_linear_7421_227791" x1="196.688" y1="22.7842" x2="317.666" y2="22.7842" gradientUnits="userSpaceOnUse">
            <stop stop-color="#878FCC"/>
            <stop offset="1" stop-color="#878FCC" stop-opacity="0"/>
        </linearGradient>
        <linearGradient id="paint4_linear_7421_227791" x1="2.82768" y1="-6.86717" x2="325.746" y2="75.9323" gradientUnits="userSpaceOnUse">
            <stop stop-color="white"/>
            <stop offset="0.530003" stop-color="white" stop-opacity="0"/>
            <stop offset="1" stop-color="white" stop-opacity="0.76"/>
        </linearGradient>
        <linearGradient id="paint5_linear_7421_227791" x1="19.5316" y1="55.0312" x2="347.532" y2="103.031" gradientUnits="userSpaceOnUse">
            <stop stop-color="#060C2E" stop-opacity="0.24"/>
            <stop offset="0.26274" stop-color="#060C2E" stop-opacity="0.097244"/>
            <stop offset="0.696491" stop-color="#060C2E" stop-opacity="0.06"/>
            <stop offset="1" stop-color="#060C2E" stop-opacity="0.24"/>
        </linearGradient>
        <linearGradient id="paint6_linear_7421_227791" x1="35.3691" y1="69.4766" x2="58.8983" y2="85.766" gradientUnits="userSpaceOnUse">
            <stop stop-color="#878FCC"/>
            <stop offset="1" stop-color="#878FCC" stop-opacity="0"/>
        </linearGradient>
        <linearGradient id="paint7_linear_7421_227791" x1="51.0527" y1="69.2012" x2="74.5819" y2="85.4907" gradientUnits="userSpaceOnUse">
            <stop stop-color="#878FCC"/>
            <stop offset="1" stop-color="#878FCC" stop-opacity="0"/>
        </linearGradient>
        <linearGradient id="paint8_linear_7421_227791" x1="213.43" y1="74.4229" x2="334.408" y2="74.4229" gradientUnits="userSpaceOnUse">
            <stop stop-color="#878FCC"/>
            <stop offset="1" stop-color="#878FCC" stop-opacity="0"/>
        </linearGradient>
        <linearGradient id="paint9_linear_7421_227791" x1="19.3589" y1="48.1641" x2="342.278" y2="130.964" gradientUnits="userSpaceOnUse">
            <stop stop-color="white"/>
            <stop offset="0.530003" stop-color="white" stop-opacity="0"/>
            <stop offset="1" stop-color="white" stop-opacity="0.76"/>
        </linearGradient>
        <linearGradient id="paint10_linear_7421_227791" x1="-6.82971" y1="103.988" x2="321.17" y2="151.988" gradientUnits="userSpaceOnUse">
            <stop stop-color="#060C2E" stop-opacity="0.24"/>
            <stop offset="0.26274" stop-color="#060C2E" stop-opacity="0.097244"/>
            <stop offset="0.696491" stop-color="#060C2E" stop-opacity="0.06"/>
            <stop offset="1" stop-color="#060C2E" stop-opacity="0.24"/>
        </linearGradient>
        <linearGradient id="paint11_linear_7421_227791" x1="8.5957" y1="118.982" x2="32.1249" y2="135.272" gradientUnits="userSpaceOnUse">
            <stop stop-color="#878FCC"/>
            <stop offset="1" stop-color="#878FCC" stop-opacity="0"/>
        </linearGradient>
        <linearGradient id="paint12_linear_7421_227791" x1="24.2793" y1="119.246" x2="47.8085" y2="135.536" gradientUnits="userSpaceOnUse">
            <stop stop-color="#878FCC"/>
            <stop offset="1" stop-color="#878FCC" stop-opacity="0"/>
        </linearGradient>
        <linearGradient id="paint13_linear_7421_227791" x1="186.598" y1="130.048" x2="307.576" y2="130.048" gradientUnits="userSpaceOnUse">
            <stop stop-color="#878FCC"/>
            <stop offset="1" stop-color="#878FCC" stop-opacity="0"/>
        </linearGradient>
        <linearGradient id="paint14_linear_7421_227791" x1="-7.0024" y1="97.1211" x2="315.916" y2="179.921" gradientUnits="userSpaceOnUse">
            <stop stop-color="white"/>
            <stop offset="0.530003" stop-color="white" stop-opacity="0"/>
            <stop offset="1" stop-color="white" stop-opacity="0.76"/>
        </linearGradient>
    </defs>
</svg>
